# xmcd CD database file
#
# Track frame offsets:
#	150
#	16345
#	32355
#	47511
#	59066
#	74076
#	87486
#	108058
#	122714
#	139289
#	153810
#	171634
#
# Disc length: 2493 seconds
#
# Revision: 0
# Processed by: cddbd v1.5.1PL2 Copyright (c) Steve Scherf et al.
# Submitted via: CDex 1.51
#
DISCID=a509bb0c
DTITLE=Naomi Therese - Gentle Soldier
DYEAR=1900
DGENRE=Country
TTITLE0=Gentle Soldier (Single Mum)
TTITLE1=Turning Back Aint No Way Forward
TTITLE2=Thanks To You
TTITLE3=Ready Or Not
TTITLE4=Sarah
TTITLE5=Get A Life
TTITLE6=All In Good Time
TTITLE7=Don't Bring Me Down
TTITLE8=You're So Beautiful
TTITLE9=Fine Country Sunshine
TTITLE10=Perfect Love (duet with Owen Blundell)
TTITLE11=Dance If You Want To
EXTD=
EXTT0=
EXTT1=
EXTT2=
EXTT3=
EXTT4=
EXTT5=
EXTT6=
EXTT7=
EXTT8=
EXTT9=
EXTT10=
EXTT11=
PLAYORDER=
